<svg width="3990" height="1117" viewBox="0 0 3990 1117" fill="none" xmlns="http://www.w3.org/2000/svg">
<path d="M192.614 591.966C164.489 591.966 139.418 587.136 117.401 577.477C95.5256 567.818 78.125 554.395 65.1989 537.207C52.4148 519.878 45.4545 499.778 44.3182 476.909H98.0114C99.1477 490.972 103.977 503.116 112.5 513.344C121.023 523.429 132.173 531.241 145.952 536.781C159.73 542.321 175 545.091 191.761 545.091C210.511 545.091 227.131 541.824 241.619 535.29C256.108 528.756 267.472 519.665 275.71 508.017C283.949 496.369 288.068 482.875 288.068 467.534C288.068 451.483 284.091 437.349 276.136 425.134C268.182 412.776 256.534 403.116 241.193 396.156C225.852 389.196 207.102 385.716 184.943 385.716H150V338.841H184.943C202.273 338.841 217.472 335.716 230.54 329.466C243.75 323.216 254.048 314.409 261.435 303.045C268.963 291.682 272.727 278.33 272.727 262.989C272.727 248.216 269.46 235.361 262.926 224.423C256.392 213.486 247.159 204.963 235.227 198.855C223.438 192.747 209.517 189.693 193.466 189.693C178.409 189.693 164.205 192.463 150.852 198.003C137.642 203.401 126.847 211.284 118.466 221.653C110.085 231.881 105.54 244.239 104.83 258.727H53.6932C54.5455 235.858 61.4347 215.83 74.3608 198.642C87.2869 181.312 104.19 167.818 125.071 158.159C146.094 148.5 169.176 143.67 194.318 143.67C221.307 143.67 244.46 149.139 263.778 160.077C283.097 170.872 297.94 185.148 308.31 202.903C318.679 220.659 323.864 239.835 323.864 260.432C323.864 285.006 317.401 305.957 304.474 323.287C291.69 340.616 274.29 352.619 252.273 359.295V362.705C279.83 367.25 301.349 378.969 316.832 397.861C332.315 416.611 340.057 439.835 340.057 467.534C340.057 491.256 333.594 512.562 320.668 531.455C307.884 550.205 290.412 564.977 268.253 575.773C246.094 586.568 220.881 591.966 192.614 591.966ZM440.838 586L636.009 199.92V196.511H411.009V149.636H690.554V199.068L496.236 586H440.838ZM900.959 591.966C871.697 591.966 845.845 586.781 823.402 576.412C801.101 565.901 783.7 551.483 771.2 533.159C758.7 514.693 752.521 493.67 752.663 470.091C752.521 451.625 756.143 434.58 763.53 418.955C770.916 403.187 781.001 390.048 793.786 379.537C806.712 368.884 821.129 362.136 837.038 359.295V356.739C816.158 351.341 799.538 339.622 787.18 321.582C774.822 303.401 768.714 282.733 768.857 259.58C768.714 237.42 774.325 217.605 785.689 200.134C797.053 182.662 812.678 168.884 832.564 158.798C852.592 148.713 875.391 143.67 900.959 143.67C926.243 143.67 948.828 148.713 968.714 158.798C988.601 168.884 1004.23 182.662 1015.59 200.134C1027.1 217.605 1032.92 237.42 1033.06 259.58C1032.92 282.733 1026.6 303.401 1014.1 321.582C1001.74 339.622 985.334 351.341 964.879 356.739V359.295C980.646 362.136 994.851 368.884 1007.49 379.537C1020.13 390.048 1030.22 403.187 1037.75 418.955C1045.28 434.58 1049.11 451.625 1049.25 470.091C1049.11 493.67 1042.72 514.693 1030.08 533.159C1017.58 551.483 1000.18 565.901 977.876 576.412C955.717 586.781 930.078 591.966 900.959 591.966ZM900.959 545.091C920.703 545.091 937.749 541.895 952.095 535.503C966.442 529.111 977.521 520.091 985.334 508.443C993.146 496.795 997.124 483.159 997.266 467.534C997.124 451.057 992.862 436.497 984.482 423.855C976.101 411.213 964.666 401.27 950.178 394.026C935.831 386.781 919.425 383.159 900.959 383.159C882.351 383.159 865.732 386.781 851.101 394.026C836.612 401.27 825.178 411.213 816.797 423.855C808.558 436.497 804.51 451.057 804.652 467.534C804.51 483.159 808.274 496.795 815.945 508.443C823.757 520.091 834.908 529.111 849.396 535.503C863.885 541.895 881.072 545.091 900.959 545.091ZM900.959 337.989C916.584 337.989 930.433 334.864 942.507 328.614C954.723 322.364 964.311 313.628 971.271 302.406C978.232 291.185 981.783 278.045 981.925 262.989C981.783 248.216 978.303 235.361 971.484 224.423C964.666 213.344 955.22 204.821 943.146 198.855C931.072 192.747 917.01 189.693 900.959 189.693C884.624 189.693 870.348 192.747 858.132 198.855C845.916 204.821 836.47 213.344 829.794 224.423C823.118 235.361 819.851 248.216 819.993 262.989C819.851 278.045 823.189 291.185 830.007 302.406C836.967 313.628 846.555 322.364 858.771 328.614C870.987 334.864 885.05 337.989 900.959 337.989Z" fill="#006CA9"/>
<path d="M2476.58 144.636V581H2423.74V200.034H2421.18L2314.65 270.773V217.08L2423.74 144.636H2476.58ZM2591.85 491.511V448.045L2783.61 144.636H2815.14V211.966H2793.84L2648.95 441.227V444.636H2907.19V491.511H2591.85ZM2797.25 581V478.301V458.06V144.636H2847.53V581H2797.25ZM3123.4 586.966C3098.4 586.966 3075.89 581.994 3055.86 572.051C3035.83 562.108 3019.78 548.472 3007.71 531.142C2995.63 513.812 2989.03 494.068 2987.89 471.909H3039.03C3041.01 491.653 3049.96 507.989 3065.87 520.915C3081.92 533.699 3101.1 540.091 3123.4 540.091C3141.3 540.091 3157.21 535.901 3171.13 527.52C3185.19 519.139 3196.2 507.634 3204.15 493.003C3212.25 478.23 3216.3 461.54 3216.3 442.932C3216.3 423.898 3212.11 406.923 3203.73 392.009C3195.49 376.952 3184.13 365.091 3169.64 356.426C3155.15 347.761 3138.6 343.358 3119.99 343.216C3106.64 343.074 3092.93 345.134 3078.87 349.395C3064.81 353.514 3053.23 358.841 3044.14 365.375L2994.71 359.409L3021.13 144.636H3247.83V191.511H3065.45L3050.11 320.205H3052.66C3061.61 313.102 3072.83 307.207 3086.33 302.52C3099.82 297.832 3113.88 295.489 3128.51 295.489C3155.22 295.489 3179.01 301.881 3199.89 314.665C3220.92 327.307 3237.39 344.636 3249.32 366.653C3261.4 388.67 3267.44 413.812 3267.44 442.08C3267.44 469.92 3261.19 494.778 3248.69 516.653C3236.33 538.386 3219.28 555.574 3197.55 568.216C3175.82 580.716 3151.1 586.966 3123.4 586.966ZM3352.08 581V542.648L3496.11 384.977C3513.01 366.511 3526.93 350.46 3537.87 336.824C3548.81 323.045 3556.91 310.119 3562.16 298.045C3567.56 285.83 3570.26 273.045 3570.26 259.693C3570.26 244.352 3566.57 231.071 3559.18 219.849C3551.93 208.628 3541.99 199.963 3529.35 193.855C3516.71 187.747 3502.5 184.693 3486.74 184.693C3469.97 184.693 3455.34 188.173 3442.84 195.134C3430.49 201.952 3420.9 211.54 3414.08 223.898C3407.4 236.256 3404.07 250.744 3404.07 267.364H3353.78C3353.78 241.795 3359.68 219.352 3371.47 200.034C3383.26 180.716 3399.31 165.659 3419.62 154.864C3440.07 144.068 3463.01 138.67 3488.44 138.67C3514.01 138.67 3536.66 144.068 3556.41 154.864C3576.15 165.659 3591.64 180.219 3602.86 198.543C3614.08 216.866 3619.69 237.25 3619.69 259.693C3619.69 275.744 3616.78 291.44 3610.95 306.781C3605.27 321.98 3595.33 338.955 3581.12 357.705C3567.06 376.312 3547.53 399.04 3522.53 425.886L3424.52 530.716V534.125H3627.36V581H3352.08ZM3868.77 144.636V581H3815.93V200.034H3813.37L3706.84 270.773V217.08L3815.93 144.636H3868.77Z" fill="#006CA9"/>
<path d="M210.875 886.818L174.653 1105H148.233L179.767 914.517H178.489L119.256 949.886L123.943 923.04L184.455 886.818H210.875Z" fill="#737370"/>
<path d="M918.523 1107.98C904.318 1107.98 891.996 1105.6 881.555 1100.85C871.186 1096.02 863.445 1089.3 858.331 1080.71C853.217 1072.05 851.406 1061.96 852.898 1050.45H879.318C878.679 1057.41 879.886 1063.45 882.94 1068.57C886.065 1073.68 890.682 1077.62 896.79 1080.39C902.969 1083.16 910.355 1084.55 918.949 1084.55C928.111 1084.55 936.705 1082.95 944.73 1079.75C952.827 1076.56 959.609 1071.94 965.078 1065.9C970.547 1059.79 973.92 1052.51 975.199 1044.06C976.335 1036.46 975.483 1029.72 972.642 1023.82C969.801 1017.93 964.901 1013.31 957.94 1009.97C951.051 1006.56 942.031 1004.86 930.881 1004.86H912.983L916.818 981.42H933.438C942.102 981.42 950.057 979.787 957.301 976.52C964.545 973.253 970.582 968.672 975.412 962.777C980.241 956.811 983.295 949.815 984.574 941.79C985.781 934.759 985.284 928.651 983.082 923.466C980.952 918.21 977.259 914.126 972.003 911.214C966.818 908.303 960.213 906.847 952.188 906.847C944.517 906.847 936.989 908.232 929.602 911.001C922.287 913.7 916.037 917.642 910.852 922.827C905.668 927.94 902.401 934.119 901.051 941.364H875.483C877.685 930 882.621 920.021 890.291 911.428C897.962 902.763 907.301 896.016 918.31 891.186C929.389 886.286 941.108 883.835 953.466 883.835C967.173 883.835 978.466 886.676 987.344 892.358C996.293 897.969 1002.68 905.355 1006.52 914.517C1010.36 923.608 1011.42 933.409 1009.72 943.92C1007.8 955.923 1002.86 966.08 994.908 974.389C986.953 982.699 977.259 988.594 965.824 992.074V993.352C979.247 995.696 988.977 1001.88 995.014 1011.89C1001.12 1021.83 1003.04 1033.69 1000.77 1047.47C998.778 1059.83 993.984 1070.55 986.385 1079.64C978.786 1088.66 969.162 1095.66 957.514 1100.63C945.866 1105.53 932.869 1107.98 918.523 1107.98Z" fill="#FA8F00"/>
<path d="M450.949 1105L454.358 1085.82L539.159 1006.99C549.102 997.756 557.376 989.695 563.982 982.805C570.658 975.916 575.842 969.453 579.536 963.416C583.3 957.379 585.75 951.023 586.886 944.347C588.165 936.676 587.49 930.036 584.862 924.425C582.234 918.814 578.08 914.482 572.398 911.428C566.716 908.374 559.898 906.847 551.943 906.847C543.563 906.847 535.928 908.587 529.038 912.067C522.149 915.476 516.432 920.305 511.886 926.555C507.341 932.734 504.358 939.943 502.938 948.182H477.795C479.926 935.398 484.791 924.176 492.391 914.517C500.061 904.858 509.472 897.33 520.622 891.932C531.844 886.534 543.847 883.835 556.631 883.835C569.415 883.835 580.246 886.534 589.124 891.932C598.001 897.33 604.429 904.609 608.406 913.771C612.384 922.933 613.449 933.125 611.602 944.347C610.182 952.443 607.376 960.291 603.186 967.891C598.996 975.49 592.568 983.977 583.903 993.352C575.31 1002.66 563.662 1014.02 548.96 1027.44L491.432 1079.86L491.006 1081.56H592.426L588.591 1105H450.949Z" fill="#737370"/>
<path d="M2399.88 874.83L2363.65 1093.01H2337.23L2368.77 902.529H2367.49L2308.26 937.898L2312.94 911.051L2373.45 874.83H2399.88Z" fill="#737370"/>
<path d="M3107.52 1095.99C3093.32 1095.99 3081 1093.62 3070.56 1088.86C3060.19 1084.03 3052.44 1077.32 3047.33 1068.72C3042.22 1060.06 3040.41 1049.97 3041.9 1038.47H3068.32C3067.68 1045.43 3068.89 1051.46 3071.94 1056.58C3075.07 1061.69 3079.68 1065.63 3085.79 1068.4C3091.97 1071.17 3099.36 1072.56 3107.95 1072.56C3117.11 1072.56 3125.7 1070.96 3133.73 1067.76C3141.83 1064.57 3148.61 1059.95 3154.08 1053.91C3159.55 1047.81 3162.92 1040.53 3164.2 1032.07C3165.34 1024.47 3164.48 1017.73 3161.64 1011.83C3158.8 1005.94 3153.9 1001.32 3146.94 997.983C3140.05 994.574 3131.03 992.87 3119.88 992.87H3101.98L3105.82 969.432H3122.44C3131.1 969.432 3139.06 967.799 3146.3 964.532C3153.55 961.265 3159.58 956.684 3164.41 950.789C3169.24 944.823 3172.3 937.827 3173.57 929.801C3174.78 922.77 3174.28 916.662 3172.08 911.478C3169.95 906.222 3166.26 902.138 3161 899.226C3155.82 896.314 3149.21 894.858 3141.19 894.858C3133.52 894.858 3125.99 896.243 3118.6 899.013C3111.29 901.712 3105.04 905.654 3099.85 910.838C3094.67 915.952 3091.4 922.131 3090.05 929.375H3064.48C3066.68 918.012 3071.62 908.033 3079.29 899.439C3086.96 890.774 3096.3 884.027 3107.31 879.198C3118.39 874.297 3130.11 871.847 3142.47 871.847C3156.17 871.847 3167.47 874.688 3176.34 880.37C3185.29 885.98 3191.68 893.367 3195.52 902.529C3199.36 911.62 3200.42 921.421 3198.72 931.932C3196.8 943.935 3191.86 954.091 3183.91 962.401C3175.95 970.711 3166.26 976.605 3154.82 980.086V981.364C3168.25 983.708 3177.98 989.887 3184.01 999.901C3190.12 1009.84 3192.04 1021.7 3189.77 1035.48C3187.78 1047.84 3182.98 1058.57 3175.38 1067.66C3167.79 1076.68 3158.16 1083.67 3146.51 1088.64C3134.87 1093.54 3121.87 1095.99 3107.52 1095.99Z" fill="#737370"/>
<path d="M3397.51 1036.26L3400.91 1014.52L3521.94 862.818H3537.7L3532.16 896.483H3521.51L3429.89 1011.11V1012.82H3559.01L3555.18 1036.26H3397.51ZM3492.53 1081L3501.06 1029.44L3502.76 1019.64L3528.76 862.818H3553.9L3517.68 1081H3492.53Z" fill="#737370"/>
<path d="M3829.7 1095.98C3817.2 1095.98 3806.34 1093.5 3797.11 1088.53C3787.87 1083.55 3780.95 1076.74 3776.33 1068.07C3771.71 1059.41 3770.05 1049.53 3771.32 1038.45H3796.89C3796.25 1048.26 3799.41 1056.39 3806.37 1062.85C3813.4 1069.31 3822.46 1072.55 3833.54 1072.55C3842.49 1072.55 3850.8 1070.45 3858.47 1066.26C3866.21 1062.07 3872.67 1056.32 3877.86 1049C3883.11 1041.69 3886.52 1033.34 3888.09 1023.97C3889.65 1014.45 3888.97 1005.93 3886.06 998.398C3883.15 990.869 3878.43 984.939 3871.89 980.607C3865.36 976.274 3857.4 974.108 3848.03 974.108C3841.42 974.108 3834.43 975.173 3827.04 977.304C3819.73 979.364 3813.51 981.991 3808.4 985.188L3784.11 982.205L3815.22 874.818H3928.57L3924.73 898.256H3833.54L3815.22 962.602H3816.49C3821.61 958.98 3827.68 956.033 3834.71 953.76C3841.81 951.416 3849.09 950.244 3856.55 950.244C3869.9 950.244 3881.27 953.44 3890.64 959.832C3900.09 966.153 3906.87 974.854 3910.99 985.933C3915.18 996.942 3916.07 1009.48 3913.65 1023.54C3911.38 1037.46 3906.23 1049.89 3898.21 1060.83C3890.25 1071.69 3880.31 1080.29 3868.38 1086.61C3856.52 1092.86 3843.62 1095.98 3829.7 1095.98Z" fill="#FA8F00"/>
<path d="M2639.95 1093.01L2643.36 1073.84L2728.16 995C2738.1 985.767 2746.38 977.706 2752.98 970.817C2759.66 963.928 2764.84 957.465 2768.54 951.428C2772.3 945.391 2774.75 939.034 2775.89 932.358C2777.16 924.688 2776.49 918.047 2773.86 912.436C2771.23 906.826 2767.08 902.493 2761.4 899.439C2755.72 896.385 2748.9 894.858 2740.94 894.858C2732.56 894.858 2724.93 896.598 2718.04 900.078C2711.15 903.488 2705.43 908.317 2700.89 914.567C2696.34 920.746 2693.36 927.955 2691.94 936.194H2666.8C2668.93 923.409 2673.79 912.188 2681.39 902.529C2689.06 892.87 2698.47 885.341 2709.62 879.944C2720.84 874.546 2732.85 871.847 2745.63 871.847C2758.41 871.847 2769.25 874.546 2778.12 879.944C2787 885.341 2793.43 892.621 2797.41 901.783C2801.38 910.945 2802.45 921.137 2800.6 932.358C2799.18 940.455 2796.38 948.303 2792.19 955.902C2788 963.502 2781.57 971.989 2772.9 981.364C2764.31 990.668 2752.66 1002.03 2737.96 1015.45L2680.43 1067.87L2680.01 1069.57H2781.43L2777.59 1093.01H2639.95Z" fill="#737370"/>
<line x1="44" y1="782.5" x2="343" y2="782.5" stroke="#737370" stroke-width="15"/>
<line x1="36.5" y1="790" x2="36.5" y2="648" stroke="#737370" stroke-width="15"/>
<line x1="335.5" y1="790" x2="335.5" y2="648" stroke="#737370" stroke-width="15"/>
<line x1="36.5" y1="790" x2="36.5" y2="648" stroke="#737370" stroke-width="15"/>
<line x1="335.5" y1="790" x2="335.5" y2="648" stroke="#737370" stroke-width="15"/>
<line x1="756" y1="782.5" x2="1055" y2="782.5" stroke="#737370" stroke-width="15"/>
<line x1="748.5" y1="790" x2="748.5" y2="648" stroke="#737370" stroke-width="15"/>
<line x1="1047.5" y1="790" x2="1047.5" y2="648" stroke="#737370" stroke-width="15"/>
<line x1="748.5" y1="790" x2="748.5" y2="648" stroke="#737370" stroke-width="15"/>
<line x1="1047.5" y1="790" x2="1047.5" y2="648" stroke="#737370" stroke-width="15"/>
<line x1="2278" y1="782.5" x2="2577" y2="782.5" stroke="#737370" stroke-width="15"/>
<line x1="2270.5" y1="790" x2="2270.5" y2="648" stroke="#737370" stroke-width="15"/>
<line x1="2569.5" y1="790" x2="2569.5" y2="648" stroke="#737370" stroke-width="15"/>
<line x1="2270.5" y1="790" x2="2270.5" y2="648" stroke="#737370" stroke-width="15"/>
<line x1="2569.5" y1="790" x2="2569.5" y2="648" stroke="#737370" stroke-width="15"/>
<line x1="2621" y1="782.5" x2="2920" y2="782.5" stroke="#737370" stroke-width="15"/>
<line x1="2613.5" y1="790" x2="2613.5" y2="648" stroke="#737370" stroke-width="15"/>
<line x1="2912.5" y1="790" x2="2912.5" y2="648" stroke="#737370" stroke-width="15"/>
<line x1="2613.5" y1="790" x2="2613.5" y2="648" stroke="#737370" stroke-width="15"/>
<line x1="2912.5" y1="790" x2="2912.5" y2="648" stroke="#737370" stroke-width="15"/>
<line x1="2979" y1="782.5" x2="3278" y2="782.5" stroke="#737370" stroke-width="15"/>
<line x1="2971.5" y1="790" x2="2971.5" y2="648" stroke="#737370" stroke-width="15"/>
<line x1="3270.5" y1="790" x2="3270.5" y2="648" stroke="#737370" stroke-width="15"/>
<line x1="2971.5" y1="790" x2="2971.5" y2="648" stroke="#737370" stroke-width="15"/>
<line x1="3270.5" y1="790" x2="3270.5" y2="648" stroke="#737370" stroke-width="15"/>
<line x1="3344" y1="782.5" x2="3643" y2="782.5" stroke="#737370" stroke-width="15"/>
<line x1="3336.5" y1="790" x2="3336.5" y2="648" stroke="#737370" stroke-width="15"/>
<line x1="3635.5" y1="790" x2="3635.5" y2="648" stroke="#737370" stroke-width="15"/>
<line x1="3336.5" y1="790" x2="3336.5" y2="648" stroke="#737370" stroke-width="15"/>
<line x1="3635.5" y1="790" x2="3635.5" y2="648" stroke="#737370" stroke-width="15"/>
<line x1="3691" y1="782.5" x2="3990" y2="782.5" stroke="#737370" stroke-width="15"/>
<line x1="3683.5" y1="790" x2="3683.5" y2="648" stroke="#737370" stroke-width="15"/>
<line x1="3982.5" y1="790" x2="3982.5" y2="648" stroke="#737370" stroke-width="15"/>
<line x1="3683.5" y1="790" x2="3683.5" y2="648" stroke="#737370" stroke-width="15"/>
<line x1="3982.5" y1="790" x2="3982.5" y2="648" stroke="#737370" stroke-width="15"/>
<line x1="400" y1="782.5" x2="699" y2="782.5" stroke="#737370" stroke-width="15"/>
<line x1="392.5" y1="790" x2="392.5" y2="648" stroke="#737370" stroke-width="15"/>
<line x1="691.5" y1="790" x2="691.5" y2="648" stroke="#737370" stroke-width="15"/>
<line x1="392.5" y1="790" x2="392.5" y2="648" stroke="#737370" stroke-width="15"/>
<line x1="691.5" y1="790" x2="691.5" y2="648" stroke="#737370" stroke-width="15"/>
</svg>
